<svg id="Layer_1" data-name="Layer 1" xmlns="http://www.w3.org/2000/svg" viewBox="0 0 6167.36 5901.02"><defs><style>.cls-1{fill-rule:evenodd;}.cls-2{isolation:isolate;font-size:0.65px;font-family:HelveticaNeue-Bold, Helvetica Neue;font-weight:700;}.cls-3{letter-spacing:-0.02em;}</style></defs><title>noun_Smile_970558</title><path class="cls-1" d="M3280,338.4l41.54-96.76c204.74-.25,262.79,55.22,434.37,117.14,283.69,102.18,232.73,136,367.8,213.77,141,81,241.89,141,345.36,235.05,127.33,115.59,216.47,168.61,308.45,271.56,275.31,308.07,250.79,288.72,472.82,668C5334.42,1890.88,5376.73,1942,5451,2127c137.14,342.25,323.3,1082.5,292.21,1428.89-33.8,378.38-383.42,859.45-608.15,1135.27-104.36,128.1-145.78,200.6-287.56,292.46-78.69,50.95-602.59,321.48-627.62,424.69v23.61c0,1,1.55,5.68.65,8.26-350.65,122.55-97.15,101.27-587.51,192.73C2912.3,5767.31,1978,5717.64,1407.94,5269c-102.56-80.89-53-11.74-230.93-169.77-41.28-36.64-63.6-42.32-101.4-78.57l-277-323.16c-81.53-92.11-230.66-350-291.56-490.36-79.21-182.94-108-455.79-136-665.17-55-409,108.24-1257.57,271.43-1640.72l133.91-266.79c108.24-155.84,117.66-259,321.23-459.27C1709,574.23,1757.55,540.43,2590.42,325.5c117.27-30.19,208.61-44.12,349.23-52.77C3169.28,258.67,3131.35,308.21,3280,338.4Zm1337.3,4960.48c-141.66-7.61-189.52,46.7-302.4,80,180-181.52,523-220.61,843.45-583.89,75.22-85.41,91.08-135.59,239.7-301l336.2-562.34c235.31-506.23,23-1252.54-149-1741.87-101-287.56-76.5-238.15-237.76-480.17-190-285.36-28.9-190.15-349.74-530.22-74.05-78.43-119.2-173.26-263.05-277.75-150.94-109.53-233.76-209.51-400.82-319L3889.53,306.79c-799.59-307.42-435-144.87-809.26-131.33-353.74,12.77-991.17,128-1305.56,315.56L1271.19,868.36c-267.31,230.93-448.82,495.27-618.72,822.3C589,1812.83,408.13,2312.35,373.68,2470.13c-54.57,250.14-100.37,718.83-97.53,987.16,4.52,425.86,131.72,775.08,331.81,1110.63,158.16,265.37,418.37,559.51,685,735.22,85.4,56.12,109.53,88.37,208.86,151.58,368.58,234.8,1029.49,365.61,1458.83,342.65,331.16-17.68,963.68-55,1221-218.67,79.09-50.31,139.72-97.4,222.93-136.88C4510.06,5391.77,4583,5393.57,4617.27,5298.88Z" transform="translate(328.77 -120.49)"/><path class="cls-1" d="M1210.43,3767.43l267.43,430.37c94.17,105.53,274.91,247.05,424.18,316.84,407,190.29,556.67,354.26,1127.91,310,266.79-20.64,929.25-244.6,1092.7-365.48l275.56-264.72c150.17-181.39,144.36-134.17,211.57-349,30.58-97.4,98.69-194.8,33.93-263.44l-56.63,1.29c-54.19,122.56-6.07,303.82-193.51,486.49-106.31,103.6-232.73,238.41-369.74,330.52-279.69,188-1192.16,470.24-1670.27,222.41-424.82-220.22-275.43-82.05-660.39-379.93-96.24-74.56-170.67-100.24-253.63-267.17C1366.78,3829.35,1366.91,3620.36,1210.43,3767.43Z" transform="translate(328.77 -120.49)"/><path class="cls-1" d="M3964.61,2158.44c100,27.61,246.28,230.54,459.53-58.18,70-94.82,28.64-104.88,76.63-163.45,76.24,141.78-20.12,263.3-155.58,323.55C4193.35,2327.83,3993,2298.16,3964.61,2158.44Zm108.89-142.16c16.12-45.93,8.51-48.12,101.14-86.44,55.21-22.83,83.34-32,146-31.48,21,31.09,25.28,15.74,35.86,115.34C4250.11,2065.43,4168.45,2096.65,4073.5,2016.28ZM4048,1796.19c34.19-20.9-4.64-30.71,49.54,8.38Zm107.34-40c96.75-59.09,81.27-3.1,85.79,0C4229.6,1763,4239.53,1807.54,4155.29,1756.2Zm7.74-105.92c-121.27,17.55-221.38,33.8-276.72,131.72-20.52,36.12-77,274.53-76.38,313.23,3.23,198.93,264.34,322.39,472.17,309,294-18.83,332.07-168.87,336.58-427.79,4.78-275.3-151.84-202.54-253.11-242.92C4278.1,1698.53,4313.71,1628.48,4163,1650.28Z" transform="translate(328.77 -120.49)"/><path class="cls-1" d="M1705.94,2168.12c99.86,27.74,246.28,230.54,459.4-58,70.18-95,28.77-104.89,76.63-163.46,76.25,141.78-20,263.31-155.58,323.42C1934.55,2337.51,1734.2,2308,1705.94,2168.12ZM1814.7,2026c16.12-45.92,8.51-48.12,101.14-86.3,55.22-22.84,83.34-32.13,146-31.61,21,31.22,25.28,15.74,35.86,115.33C1991.31,2075.23,1909.65,2106.32,1814.7,2026Zm-25.55-220.09c34.19-20.89-4.64-30.7,49.54,8.39Zm107.34-40c96.76-58.95,81.27-3,85.79,0C1970.8,1772.84,1980.73,1817.35,1896.49,1765.87Zm7.74-105.91c-121.27,17.67-221.38,33.8-276.72,131.84-20.39,36.12-77,274.4-76.37,313.23,3.22,198.8,264.33,322.27,472.29,309,293.88-18.84,331.94-169,336.46-427.79,4.77-275.31-151.85-202.54-253.12-243C2019.3,1708.21,2054.91,1638.15,1904.23,1660Z" transform="translate(328.77 -120.49)"/><text class="cls-2" transform="translate(0 5900.06)">C<tspan class="cls-3" x="0.48" y="0">r</tspan><tspan x="0.72" y="0">eated by Alex Muravev</tspan></text><text class="cls-2" transform="translate(0 5900.71)">f<tspan class="cls-3" x="0.21" y="0">r</tspan><tspan x="0.45" y="0">om the Noun P</tspan><tspan class="cls-3" x="5.02" y="0">r</tspan><tspan x="5.26" y="0">oject</tspan></text></svg>