<svg id="Layer_1" data-name="Layer 1" xmlns="http://www.w3.org/2000/svg" viewBox="0 0 76.25 81.02"><title>Artboard 1</title><path d="M76.25,29.13s0,0,0,0a.41.41,0,0,0,0-.22v0l0,0a.49.49,0,0,0-.14-.18h0a.53.53,0,0,0-.17-.08l-8.05-1.92L55.41,25.59,45.78,1.34s0,0,0,0,0,0,0-.06-.06-.05-.09-.07a.23.23,0,0,0-.07-.07.48.48,0,0,0-.17-.05l-.07,0a.29.29,0,0,0-.16,0l-6.49.48a.54.54,0,0,0-.43.31l-10.52,25L.38,33.28a.52.52,0,0,0-.35.31.52.52,0,0,0,.06.47L2.55,37.5s.05,0,.08.07l0,0L21.32,51.25,18.57,73.47a.42.42,0,0,0,.06.31l4,7a.55.55,0,0,0,.18.19h0A.57.57,0,0,0,23,81h.1a.6.6,0,0,0,.11-.06s.07,0,.1,0L44.81,64.1l17.8,5.23a.51.51,0,0,0,.64-.53L61.14,48l15-18.64a0,0,0,0,0,0,0,.4.4,0,0,0,.09-.21Zm-8.59-1.5,1.8.43L56,27l-.15-.38ZM39.06,2.5l5.48-.41L35.36,23.7l-2.21,5.22-4.41-2Zm-11,25.26,3.83,1.69L3.17,36.65,1.34,34.08Zm-5.8,24.16L26,54.65,23.75,71.41l-1,7.58-3.15-5.56Zm38-4.37a.52.52,0,0,0-.11.36l2.06,20.25L44.85,63.07a.52.52,0,0,0-.45.09L23.69,79.37,27,54.49a.51.51,0,0,0-.2-.47L4.12,37.44l29.41-7.37,0,0h0l.09-.06.06,0,0,0s0,0,0,0l.07-.09L45.31,2.84,54.6,26.25h0l.56,1.42a.51.51,0,0,0,.42.31l19.19,1.5Z"/></svg>